<?xml version="1.0" encoding="UTF-8"?>
<svg version="1.1" xmlns="http://www.w3.org/2000/svg" width="1024" height="1024">
<path d="M0 0 C337.92 0 675.84 0 1024 0 C1024 337.92 1024 675.84 1024 1024 C686.08 1024 348.16 1024 0 1024 C0 686.08 0 348.16 0 0 Z " fill="#002758" transform="translate(0,0)"/>
<path d="M0 0 C337.92 0 675.84 0 1024 0 C1024 337.92 1024 675.84 1024 1024 C686.08 1024 348.16 1024 0 1024 C0 686.08 0 348.16 0 0 Z M388 88 C387.31309082 88.1870752 386.62618164 88.37415039 385.91845703 88.56689453 C362.88352396 94.9527584 340.47947867 104.63636048 319 115 C318.10958008 115.42667969 317.21916016 115.85335937 316.30175781 116.29296875 C283.97558535 131.85165968 254.51860106 152.06931865 227 175 C225.98776367 175.84054932 224.97552734 176.68109863 223.93261719 177.54711914 C215.42623356 184.68368894 207.44461402 192.24302144 199.62084961 200.1184082 C197.67849516 202.07155488 195.72557042 204.0136762 193.77148438 205.95507812 C186.71810269 213.00103685 180.17800107 220.16710297 174 228 C173.06573287 229.10226267 172.12433075 230.19857164 171.171875 231.28515625 C163.49512213 240.08865834 156.67440308 249.42077003 150 259 C149.49855469 259.71784668 148.99710937 260.43569336 148.48046875 261.17529297 C101.54142418 328.8127223 71.11241412 413.08308391 70.796875 496.0078125 C70.79117493 497.2127536 70.78547485 498.4176947 70.77960205 499.65914917 C70.77021732 502.19870139 70.76364431 504.73826543 70.75976562 507.27783203 C70.75014732 511.0669627 70.71909559 514.8555293 70.6875 518.64453125 C70.61500583 535.29737158 71.7606335 551.50285215 74 568 C74.10713318 568.81416382 74.21426636 569.62832764 74.324646 570.46716309 C74.9248034 575.00952111 75.59409806 579.53705444 76.3125 584.0625 C76.46782196 585.04644241 76.46782196 585.04644241 76.62628174 586.05026245 C83.65488822 630.22922706 98.27602973 673.21898586 118.91650391 712.90234375 C120.11239198 715.21759168 121.28058533 717.54588326 122.44921875 719.875 C137.97018746 750.5103878 158.34000244 778.28012512 181 804 C181.62116699 804.71019287 182.24233398 805.42038574 182.88232422 806.15209961 C189.02490268 813.08710894 195.48876958 819.67494572 202.03759766 826.22290039 C203.87042269 828.05791722 205.6950701 829.9008125 207.51953125 831.74414062 C214.37576304 838.63268363 221.37549473 844.96239796 229 851 C230.09125418 851.93352795 231.17603148 852.87476162 232.25 853.828125 C239.9220377 860.58474911 248.09402084 866.32535364 256.58203125 872.01171875 C259.90918836 874.24256057 263.12992376 876.5656623 266.3125 879 C275.04055011 885.41134545 284.60892278 890.63591474 294 896 C295.36922607 896.78262207 295.36922607 896.78262207 296.76611328 897.58105469 C326.58624542 914.50584915 358.1568523 927.23993114 391 937 C391.89058105 937.2676416 392.78116211 937.5352832 393.69873047 937.81103516 C463.67284898 958.48252872 541.70321904 959.21530974 612.36914062 941.64160156 C615.0672368 940.98360261 617.77326235 940.37537701 620.484375 939.7734375 C689.35035065 924.08290405 754.55168951 887.63328856 806.48828125 840.265625 C807.89167568 838.99973267 809.30177478 837.7408447 810.7355957 836.50952148 C816.25607482 831.76206075 821.42757456 826.72201407 826.5625 821.5625 C827.37396484 820.75490234 828.18542969 819.94730469 829.02148438 819.11523438 C833.88894714 814.23991452 838.53580734 809.24600536 843 804 C843.69041382 803.20009644 843.69041382 803.20009644 844.39477539 802.3840332 C865.26680943 778.1858717 883.5765347 752.31766115 898.81054688 724.19384766 C899.65249902 722.64093675 900.50079218 721.09145603 901.35351562 719.54443359 C945.00980665 640.10357114 961.9593968 544.72738478 950 455 C949.85546387 453.90333008 949.71092773 452.80666016 949.56201172 451.67675781 C946.34082041 428.06895708 941.05144933 404.75291333 934 382 C933.74669922 381.17435547 933.49339844 380.34871094 933.23242188 379.49804688 C914.54698604 319.22697942 881.91654935 261.78606258 838.625 215.80859375 C836.56126089 213.60051575 834.5754474 211.36890405 832.625 209.0625 C825.38701562 200.70413966 817.33785173 192.76076697 808.8984375 185.62109375 C806.67099967 183.7190635 804.52977029 181.7339228 802.375 179.75 C796.71334404 174.64323834 790.74555735 169.9801185 784.70996094 165.32910156 C783.18086809 164.14058337 781.67106997 162.92733747 780.1640625 161.7109375 C757.48963417 143.63351656 732.09274577 128.4763381 705.98535156 115.95800781 C703.88521563 114.94461216 701.79827706 113.90666209 699.7109375 112.8671875 C686.47970403 106.35374521 672.82259012 101.11321671 659 96 C658.11699219 95.66726074 657.23398437 95.33452148 656.32421875 94.99169922 C574.3071044 64.13841073 482.9809391 64.26904238 388 88 Z " fill="#FEFEFE" transform="translate(0,0)"/>
<path d="M0 0 C2.09656397 0.44143295 4.19836142 0.8313199 6.30566406 1.21777344 C34.6789377 6.77979637 59.47066664 22.81357416 80.11035156 42.44433594 C80.86832031 43.12625 81.62628906 43.80816406 82.40722656 44.51074219 C108.03963347 68.41249388 123.07139172 105.82722755 124.41894531 140.48339844 C124.63410245 151.26672264 124.09462876 161.83128762 122.11035156 172.44433594 C121.9867627 173.13269531 121.86317383 173.82105469 121.73583984 174.53027344 C116.73547252 201.78076011 104.1809262 225.38112887 85.11035156 245.44433594 C84.65112305 245.9307959 84.19189453 246.41725586 83.71875 246.91845703 C69.95007253 261.41931501 53.27871358 273.30564543 34.11035156 279.44433594 C31.59315999 280.44080173 29.09315185 281.47220202 26.59472656 282.51464844 C20.61224253 284.75337674 14.39590246 286.12568624 8.17285156 287.50683594 C7.41294922 287.68021484 6.65304687 287.85359375 5.87011719 288.03222656 C-3.15091882 290.042893 -11.66482171 290.58188146 -20.88964844 290.50683594 C-21.95054687 290.50232422 -23.01144531 290.4978125 -24.10449219 290.49316406 C-26.69960442 290.48147437 -29.29459553 290.4650887 -31.88964844 290.44433594 C-31.88964844 289.78433594 -31.88964844 289.12433594 -31.88964844 288.44433594 C-30.90867187 288.28578125 -29.92769531 288.12722656 -28.91699219 287.96386719 C4.79839194 282.25961375 34.60823842 263.8483117 55.11035156 236.44433594 C78.09782008 203.25849141 87.6596821 161.64904988 81.20410156 121.68652344 C80.16237833 116.50075401 78.76124677 111.46676234 77.11035156 106.44433594 C76.88041504 105.72101074 76.65047852 104.99768555 76.41357422 104.25244141 C69.7494631 83.73188409 59.00019005 66.01971026 44.11035156 50.44433594 C43.52382813 49.79464844 42.93730469 49.14496094 42.33300781 48.47558594 C20.64569481 25.31714229 -12.39202708 10.29022683 -43.95829773 9.12712097 C-47.60238472 9.03445801 -51.24447254 9.00619579 -54.88964844 9.00683594 C-55.65600616 9.0054361 -56.42236389 9.00403625 -57.21194458 9.00259399 C-73.56370348 9.02707682 -88.45099288 11.40109724 -103.41699219 18.33105469 C-106.18662001 19.57804352 -108.99745862 20.5223715 -111.88964844 21.44433594 C-101.38896602 9.19985789 -77.76807933 3.89196411 -62.88964844 0.44433594 C-61.66890625 0.14398438 -60.44816406 -0.15636719 -59.19042969 -0.46582031 C-40.14426365 -4.73824084 -19.03282506 -4.02467651 0 0 Z " fill="#89B5E8" transform="translate(542.8896484375,369.5556640625)"/>
<path d="M0 0 C0.56275635 0.0707373 1.1255127 0.14147461 1.70532227 0.21435547 C10.55232421 1.17880496 19.37330734 1.15157184 28.26049805 1.13037109 C30.92828065 1.1250185 33.59589442 1.13033944 36.26367188 1.13671875 C45.22342836 1.13984639 54.08289274 0.99570395 63 0 C63.37488508 22.53938683 60.05910456 44.33122921 54 66 C53.70996094 67.04865234 53.41992188 68.09730469 53.12109375 69.17773438 C47.98114161 87.47907911 42.14983157 107.76578071 32 124 C7.44879419 95.67760584 -1.5704035 36.20652519 0 0 Z " fill="#5A9AE1" transform="translate(480,694)"/>
<path d="M0 0 C16.43099768 19.00638916 22.76303142 54.08040809 28 78 C28.16580566 78.75023437 28.33161133 79.50046875 28.50244141 80.2734375 C31.51708571 94.21009601 33.46814423 108.72160101 33 123 C32.05745361 122.9292627 31.11490723 122.85852539 30.14379883 122.78564453 C20.42607914 122.095316 10.75725159 121.84294996 1.01635742 121.86962891 C-1.32835225 121.87503656 -3.67287383 121.86961631 -6.01757812 121.86328125 C-14.06501675 121.86010459 -21.99697025 122.03862907 -30 123 C-30.5273603 86.10431075 -20.11837647 50.15237387 -7 16 C-6.68192383 15.17081055 -6.36384766 14.34162109 -6.03613281 13.48730469 C-1.34747024 1.34747024 -1.34747024 1.34747024 0 0 Z " fill="#D6E6F8" transform="translate(511,208)"/>
<path d="M0 0 C-0.23058105 1.38058594 -0.23058105 1.38058594 -0.46582031 2.7890625 C-1.97670372 12.22448798 -2.22169916 21.5770039 -2.25 31.125 C-2.25902344 32.3742627 -2.26804687 33.62352539 -2.27734375 34.91064453 C-2.25041947 43.46246792 -1.42270628 51.57232875 0 60 C-39.74828535 61.40655793 -82.81127671 49.08495875 -118 31 C-118 30.34 -118 29.68 -118 29 C-86.75352185 16.53477146 -86.75352185 16.53477146 -77.05126953 13.61865234 C-75.53887324 13.1625214 -74.02990334 12.69499228 -72.52294922 12.22119141 C-59.1366783 8.03842811 -45.67352008 4.98009043 -31.875 2.5625 C-31.14486694 2.43094513 -30.41473389 2.29939026 -29.66247559 2.16384888 C-19.67044454 0.38309505 -10.15649588 -0.34039482 0 0 Z " fill="#9CC0EC" transform="translate(330,482)"/>
<path d="M0 0 C7.92680133 -0.23803914 15.42956909 0.42052944 23.25 1.6875 C24.93041382 1.95324829 24.93041382 1.95324829 26.64477539 2.22436523 C41.62235117 4.66282042 56.39270518 7.89548265 71 12 C72.18464844 12.33 73.36929688 12.66 74.58984375 13 C83.83328246 15.76116722 92.82316817 19.13487444 101.8125 22.625 C102.75680374 22.98754883 102.75680374 22.98754883 103.72018433 23.35742188 C105.53168726 24.05506955 107.33821147 24.76560258 109.14453125 25.4765625 C110.20003174 25.88986816 111.25553223 26.30317383 112.34301758 26.72900391 C114.8150353 27.91152015 116.24975992 28.92834877 118 31 C80.82357413 47.19109045 40.99374623 60.99311902 0 60 C0.144375 58.906875 0.28875 57.81375 0.4375 56.6875 C2.77687677 37.7352181 2.87506761 18.89330141 0 0 Z " fill="#97BDEB" transform="translate(694,482)"/>
<path d="M0 0 C0.66 0 1.32 0 2 0 C3.71587265 1.94035062 5.30234974 3.8847371 6.875 5.9375 C7.3604126 6.56575684 7.8458252 7.19401367 8.34594727 7.84130859 C30.01015568 36.11887469 46.9442423 66.86121743 60 100 C56.22680097 99.37844672 53.07269541 98.28462764 49.59765625 96.69921875 C48.55359619 96.22291016 47.50953613 95.74660156 46.43383789 95.25585938 C45.32129639 94.73830078 44.20875488 94.22074219 43.0625 93.6875 C41.9067749 93.15060547 40.7510498 92.61371094 39.56030273 92.06054688 C11.1942076 78.72461132 -16.17851692 62.70003428 -39 41 C-35.62728563 37.5846701 -32.18047757 34.28688009 -28.625 31.0625 C-27.66335938 30.18980469 -26.70171875 29.31710937 -25.7109375 28.41796875 C-23.58786114 26.52433148 -21.44279988 24.68579628 -19.25 22.875 C-12.36036038 16.99758231 -7.17408994 9.65346759 -1.91796875 2.34375 C-1.28503906 1.5703125 -0.65210938 0.796875 0 0 Z " fill="#69A2E3" transform="translate(660,620)"/>
<path d="M0 0 C3.578705 1.46294314 5.26170173 3.30395608 7.5625 6.375 C15.22095261 16.19534052 23.40858545 24.67713094 33.0546875 32.52734375 C35.88345414 34.90215712 38.43271956 37.352196 41 40 C21.23769951 62.10257291 -8.95887251 77.41864246 -35.25 90.0625 C-36.62309326 90.72378906 -36.62309326 90.72378906 -38.02392578 91.3984375 C-44.22397647 94.31823538 -50.52448741 96.76069479 -57 99 C-50.96113411 63.74767723 -22.46916386 26.83707488 0 0 Z " fill="#6BA3E3" transform="translate(362,621)"/>
<path d="M0 0 C-0.63323979 3.9470292 -1.85166518 7.21302589 -3.51953125 10.83984375 C-4.30166992 12.54140625 -4.30166992 12.54140625 -5.09960938 14.27734375 C-5.66964244 15.49783085 -6.24062902 16.71787299 -6.8125 17.9375 C-7.10278076 18.55915039 -7.39306152 19.18080078 -7.69213867 19.82128906 C-20.82770022 47.88313476 -36.55554123 74.59723922 -57 98 C-60.66913544 96.30629705 -62.35605026 94.55385084 -64.8125 91.3125 C-74.72641172 78.91198419 -86.27050729 68.43433897 -99 59 C-82.04291171 41.77038707 -61.04434914 29.56848543 -40 18 C-39.26330078 17.58911133 -38.52660156 17.17822266 -37.76757812 16.75488281 C-7.68337799 0 -7.68337799 0 0 0 Z " fill="#C5DBF6" transform="translate(719,305)"/>
<path d="M0 0 C33.08355452 10.26913532 66.5140696 30.82806584 93 53 C93.639375 53.52851563 94.27875 54.05703125 94.9375 54.6015625 C96.29689372 55.72809711 97.64954034 56.86277081 99 58 C95.74040732 61.34753133 92.39793492 64.39521871 88.75 67.3125 C77.30175849 76.60650252 68.12135578 86.4383854 59 98 C54.70075771 96.4357217 52.35678997 93.17014611 49.625 89.6875 C49.10824707 89.03305908 48.59149414 88.37861816 48.05908203 87.7043457 C36.95488699 73.38943874 27.37899429 58.04624479 19 42 C18.66339355 41.35853027 18.32678711 40.71706055 17.97998047 40.05615234 C13.37254269 31.21398764 9.17888419 22.17579287 5 13.125 C4.50636963 12.05942871 4.01273926 10.99385742 3.50415039 9.89599609 C3.04903076 8.90164551 2.59391113 7.90729492 2.125 6.8828125 C1.71507812 5.98965332 1.30515625 5.09649414 0.8828125 4.17626953 C0 2 0 2 0 0 Z " fill="#C4DAF5" transform="translate(305,305)"/>
<path d="M0 0 C0.85170493 41.3142405 0.85170493 41.3142405 -4 57 C-4.20318848 57.67466309 -4.40637695 58.34932617 -4.61572266 59.04443359 C-7.81495995 69.3146126 -7.81495995 69.3146126 -10.76953125 71.0234375 C-14.12650387 70.98816283 -16.26319404 69.55221056 -19.1875 67.9375 C-25.44801601 64.57848749 -31.79947346 62.15962134 -38.5769043 60.04272461 C-40.41369062 59.44470613 -42.21203369 58.73115426 -44 58 C-45 55 -45 55 -43.48046875 51.4453125 C-42.73082176 49.99751454 -41.9654066 48.55781222 -41.1875 47.125 C-40.77951172 46.36630615 -40.37152344 45.6076123 -39.95117188 44.82592773 C-34.31558785 34.62805108 -12.53066065 0 0 0 Z " fill="#CEE1F8" transform="translate(610,279)"/>
<path d="M0 0 C4.86607719 0.4199888 8.76028731 2.07737089 13 4.375 C13.65226563 4.72804199 14.30453125 5.08108398 14.9765625 5.44482422 C25.40389801 11.28503795 34.23329326 19.13763613 43 27.1875 C43.61101563 27.74518066 44.22203125 28.30286133 44.8515625 28.87744141 C49.12051911 32.88664047 52.62478298 37.21921527 56 42 C51.11745376 44.44127312 43.89913313 43.24502564 38.4375 43.25 C37.68391205 43.25100708 36.9303241 43.25201416 36.15390015 43.25305176 C25.14338965 43.24304795 14.70480546 42.80026368 4 40 C3.34999023 39.83419434 2.69998047 39.66838867 2.03027344 39.49755859 C-9.23863516 36.5939639 -9.23863516 36.5939639 -14 34 C-13.38486213 31.23245234 -12.54981876 28.85081152 -11.29296875 26.3125 C-10.78648804 25.27222656 -10.78648804 25.27222656 -10.26977539 24.2109375 C-9.73404907 23.11652344 -9.73404907 23.11652344 -9.1875 22 C-6.20971021 15.82286065 -3.684142 9.70192159 -1.69140625 3.125 C-1 1 -1 1 0 0 Z " fill="#7DADE5" transform="translate(688,567)"/>
<path d="M0 0 C9.68581466 21.99916414 8.4864335 45.52584191 8 69 C4.01579725 67.14366298 1.05872771 64.5466885 -2.125 61.5625 C-2.69903564 61.02536377 -3.27307129 60.48822754 -3.86450195 59.93481445 C-17.19042676 47.33121219 -28.40531505 32.79883957 -36 16 C-36 15.01 -36 14.02 -36 13 C-35.43192627 12.81937012 -34.86385254 12.63874023 -34.27856445 12.45263672 C-24.00879887 9.16606259 -13.97469484 5.87199497 -4.30078125 1.06640625 C-2 0 -2 0 0 0 Z " fill="#5F9CE2" transform="translate(601,674)"/>
<path d="M0 0 C4.37341622 0.48059519 7.99022534 2.3175475 11.875 4.25 C19.38696549 7.88603589 27.02729063 10.54598875 35 13 C28.85732924 34.68001445 11.59694226 50.64017341 -4 66 C-4.556875 66.59683594 -5.11375 67.19367188 -5.6875 67.80859375 C-7 69 -7 69 -9 69 C-9.07554099 64.18435903 -9.12923948 59.36908099 -9.16479492 54.55297852 C-9.17965472 52.92303442 -9.19994836 51.29312859 -9.22631836 49.66333008 C-9.45457296 35.1669253 -8.25464953 21.2707901 -3.375 7.5 C-2.94960938 6.2728125 -2.52421875 5.045625 -2.0859375 3.78125 C-1 1 -1 1 0 0 Z " fill="#609DE2" transform="translate(423,674)"/>
<path d="M0 0 C0.63615234 1.68802734 0.63615234 1.68802734 1.28515625 3.41015625 C4.5166533 11.89620312 7.88310365 20.23772408 11.86547852 28.40258789 C14 32.80967838 14 32.80967838 14 35 C-3.17139623 42.40418003 -22.01849509 44.17752111 -40.5 44.0625 C-41.90885258 44.05747533 -43.31770689 44.05291413 -44.7265625 44.04882812 C-48.15108638 44.0371003 -51.57552047 44.02068691 -55 44 C-53.66805465 40.07873231 -52.05334647 37.66906148 -49.140625 34.7421875 C-47.97249268 33.56438721 -47.97249268 33.56438721 -46.78076172 32.36279297 C-45.94561035 31.54182129 -45.11045898 30.72084961 -44.25 29.875 C-43.39035645 29.02695801 -42.53071289 28.17891602 -41.64501953 27.30517578 C-13.63021182 0 -13.63021182 0 0 0 Z " fill="#82B1E7" transform="translate(336,566)"/>
<path d="M0 0 C-1.2968563 3.32981606 -2.7078362 6.55581482 -4.27734375 9.765625 C-4.70853516 10.65636719 -5.13972656 11.54710937 -5.58398438 12.46484375 C-6.47944037 14.30744151 -7.37783406 16.14861478 -8.27929688 17.98828125 C-10.96596126 23.55380062 -13.22008392 29.07966659 -15 35 C-19.48262356 34.38757325 -23.12790811 32.62527615 -27.0625 30.5 C-27.7237085 30.14325195 -28.38491699 29.78650391 -29.06616211 29.41894531 C-44.27084165 21.00465186 -59.58590559 8.20247786 -71 -5 C-71 -5.66 -71 -6.32 -71 -7 C-46.60408328 -10.74170502 -23.30091783 -7.15760025 0 0 Z " fill="#B1CEF1" transform="translate(351,422)"/>
<path d="M0 0 C18.65203462 11.91862997 34.57415162 31.54918258 43 52 C43 52.99 43 53.98 43 55 C42.43192627 55.21092285 41.86385254 55.4218457 41.27856445 55.63916016 C30.32552987 59.72011492 19.50594572 63.85423067 9 69 C2.14328334 56.02121489 -0.20805296 39.55642543 -0.09765625 25 C-0.0962413 24.2788501 -0.09482635 23.5577002 -0.09336853 22.81469727 C-0.08783381 20.54308676 -0.07529423 18.27158 -0.0625 16 C-0.05747654 14.44661602 -0.05291512 12.89323048 -0.04882812 11.33984375 C-0.03788589 7.55985672 -0.0206676 3.77994586 0 0 Z " fill="#CEE1F8" transform="translate(415,282)"/>
<path d="M0 0 C1.60871825 0.01007175 3.21744276 0.01919003 4.82617188 0.02734375 C8.69677469 0.04897505 12.56706397 0.08326158 16.4375 0.125 C8.88173753 17.35146164 -13.19729138 30.54858891 -29.375 38.875 C-30.05135498 39.22328857 -30.72770996 39.57157715 -31.42456055 39.93041992 C-36.18748354 42.25000549 -36.18748354 42.25000549 -39.5625 41.125 C-40.44921875 38.74609375 -40.44921875 38.74609375 -41.25 35.5625 C-43.06977424 29.12931374 -45.69033641 23.48565014 -48.83276367 17.59545898 C-50.6675703 14.11637828 -52.05750129 11.04439296 -52.5625 7.125 C-50.08842606 6.31372669 -47.60996921 5.52668923 -45.125 4.75 C-44.45662109 4.52828125 -43.78824219 4.3065625 -43.09960938 4.078125 C-29.15889679 -0.21132503 -14.44085747 -0.1606392 0 0 Z " fill="#B1CDF0" transform="translate(726.5625,414.875)"/>
<path d="M0 0 C0.495 1.485 0.495 1.485 1 3 C4.3 3.33 7.6 3.66 11 4 C11 4.33 11 4.66 11 5 C10.38181396 5.06993164 9.76362793 5.13986328 9.12670898 5.21191406 C-6.76089378 7.04617651 -21.57958827 9.28793009 -36.31640625 15.8515625 C-39.16706856 17.07149659 -42.04804351 18.05502714 -45 19 C-36.83423666 9.47818932 -17.21498995 2.33004179 -5.0625 1.1875 C-3.90427734 1.14689453 -3.90427734 1.14689453 -2.72265625 1.10546875 C-0.96813539 1.18899335 -0.96813539 1.18899335 0 0 Z " fill="#BED3ED" transform="translate(476,372)"/>
<path d="M0 0 C0.99 0.33 1.98 0.66 3 1 C0.83018847 3.4201744 -0.91014554 4.95666855 -3.859375 6.37890625 C-7.00535535 8.00276427 -9.08157117 9.68645483 -11.625 12.125 C-15.40957451 15.62286432 -19.27145482 18.89048913 -23.375 22 C-24.35210937 22.7425 -25.32921875 23.485 -26.3359375 24.25 C-28.68974092 25.79619345 -30.25362313 26.58348787 -33 27 C-31.55881306 23.51066011 -29.8400475 21.83119329 -26.81640625 19.609375 C-25.97585693 18.98546875 -25.13530762 18.3615625 -24.26928711 17.71875 C-22.92942749 16.74421875 -22.92942749 16.74421875 -21.5625 15.75 C-20.65830322 15.08484375 -19.75410645 14.4196875 -18.82250977 13.734375 C-17.03007396 12.41686633 -15.23544533 11.10233497 -13.43847656 9.79101562 C-11.38598745 8.28350059 -9.35467748 6.75528589 -7.3359375 5.203125 C-6.37945312 4.47609375 -5.42296875 3.7490625 -4.4375 3 C-3.63183594 2.38125 -2.82617188 1.7625 -1.99609375 1.125 C-1.33738281 0.75375 -0.67867188 0.3825 0 0 Z " fill="#0B2B56" transform="translate(266,145)"/>
<path d="M0 0 C0.66 0 1.32 0 2 0 C0.49089988 3.54120058 -1.57119314 5.81604365 -4.2890625 8.51953125 C-5.14886719 9.37740234 -6.00867188 10.23527344 -6.89453125 11.11914062 C-7.79558594 12.00794922 -8.69664062 12.89675781 -9.625 13.8125 C-10.50285156 14.68970703 -11.38070312 15.56691406 -12.28515625 16.47070312 C-26.36287523 30.45429174 -26.36287523 30.45429174 -31 32 C-30.1875 30.0625 -30.1875 30.0625 -29 28 C-28.01 27.67 -27.02 27.34 -26 27 C-25.71125 26.41734375 -25.4225 25.8346875 -25.125 25.234375 C-23.6095835 22.22458946 -21.50954087 20.48232414 -19 18.25 C-18.113125 17.45078125 -17.22625 16.6515625 -16.3125 15.828125 C-14 14 -14 14 -12 14 C-12 13.34 -12 12.68 -12 12 C-11.34 12 -10.68 12 -10 12 C-10 11.34 -10 10.68 -10 10 C-9.34 10 -8.68 10 -8 10 C-8 9.34 -8 8.68 -8 8 C-7.34 8 -6.68 8 -6 8 C-5.67 6.68 -5.34 5.36 -5 4 C-4.01 4 -3.02 4 -2 4 C-2 3.34 -2 2.68 -2 2 C-1.34 2 -0.68 2 0 2 C0 1.34 0 0.68 0 0 Z " fill="#112E56" transform="translate(831,813)"/>
<path d="M0 0 C0.33 0 0.66 0 1 0 C1.19390729 2.31197155 1.37996367 4.6246029 1.5625 6.9375 C1.66691406 8.22527344 1.77132812 9.51304687 1.87890625 10.83984375 C1.91886719 11.88269531 1.95882812 12.92554688 2 14 C1.67 14.33 1.34 14.66 1 15 C0.8768483 16.74838835 0.82212189 18.50164504 0.79467773 20.25415039 C0.77473251 21.37523697 0.75478729 22.49632355 0.73423767 23.65138245 C0.71752518 24.8711528 0.70081268 26.09092316 0.68359375 27.34765625 C0.66281265 28.58921982 0.64203156 29.83078339 0.62062073 31.10997009 C0.56616391 34.41599123 0.51595795 37.72202245 0.46777344 41.02813721 C0.41760144 44.39967491 0.36189299 47.77112053 0.30664062 51.14257812 C0.19929962 57.76164551 0.09755802 64.3807816 0 71 C-0.33 71 -0.66 71 -1 71 C-1.02335222 63.66226568 -1.04103011 56.3245396 -1.05181217 48.9867754 C-1.0569916 45.57816552 -1.06399741 42.16958139 -1.07543945 38.76098633 C-1.08856204 34.82633796 -1.09326897 30.89169938 -1.09765625 26.95703125 C-1.10281754 25.75544876 -1.10797882 24.55386627 -1.11329651 23.31587219 C-1.11380537 15.4992952 -0.71225677 7.7838444 0 0 Z " fill="#304E71" transform="translate(72,470)"/>
<path d="M0 0 C0.66 0.33 1.32 0.66 2 1 C0.74674325 4.75977024 -0.49642729 5.23935802 -3.8046875 7.3203125 C-4.78050781 7.93777344 -5.75632812 8.55523438 -6.76171875 9.19140625 C-7.78910156 9.82949219 -8.81648437 10.46757813 -9.875 11.125 C-10.89464844 11.77082031 -11.91429687 12.41664063 -12.96484375 13.08203125 C-20.55343192 17.85114397 -20.55343192 17.85114397 -24 19 C-22.50848816 15.06783241 -20.62208419 14.00370615 -17 12 C-11.13950828 8.25331159 -5.51434907 4.23718375 0 0 Z " fill="#133057" transform="translate(761,872)"/>
<path d="M0 0 C-2.64738916 1.4606285 -3.89448334 2 -7 2 C-7 2.66 -7 3.32 -7 4 C-4.03 4.495 -4.03 4.495 -1 5 C-1 5.33 -1 5.66 -1 6 C-8.59 6 -16.18 6 -24 6 C-24 5.34 -24 4.68 -24 4 C-22.90300781 3.80664062 -21.80601562 3.61328125 -20.67578125 3.4140625 C-19.22130418 3.15131825 -17.76687983 2.88828199 -16.3125 2.625 C-15.59126953 2.49867188 -14.87003906 2.37234375 -14.12695312 2.2421875 C-10.95526717 1.66288413 -8.1634644 1.06718951 -5.16796875 -0.1640625 C-3 -1 -3 -1 0 0 Z " fill="#3C77BC" transform="translate(535,654)"/>
<path d="M0 0 C0.33 0.99 0.66 1.98 1 3 C4.3 3.33 7.6 3.66 11 4 C11 4.33 11 4.66 11 5 C4.4 5.66 -2.2 6.32 -9 7 C-9.33 6.01 -9.66 5.02 -10 4 C-9.01 3.67 -8.02 3.34 -7 3 C-7 2.34 -7 1.68 -7 1 C-5.5459375 1.0309375 -5.5459375 1.0309375 -4.0625 1.0625 C-1.12534105 1.35618499 -1.12534105 1.35618499 0 0 Z " fill="#C7DCF8" transform="translate(476,372)"/>
<path d="M0 0 C0.66 0 1.32 0 2 0 C0.93719124 5.95172906 -0.77661395 11.47177802 -2.875 17.125 C-3.11943848 17.79337891 -3.36387695 18.46175781 -3.61572266 19.15039062 C-5.34777506 23.71967768 -7.48566795 27.80944658 -10 32 C-10.33 31.01 -10.66 30.02 -11 29 C-10.01453001 27.32470102 -9.01059521 25.66026356 -8 24 C-6.85764229 21.04783962 -5.95557162 18.01693574 -5 15 C-4.11172328 12.3099705 -3.21175082 9.62387754 -2.3125 6.9375 C-1.87090544 5.61334403 -1.42948464 4.2891301 -0.98828125 2.96484375 C-0.66214844 1.98644531 -0.33601562 1.00804687 0 0 Z " fill="#6499D8" transform="translate(660,553)"/>
<path d="M0 0 C0.99 0 1.98 0 3 0 C1.46524006 3.91230714 -0.93643645 5.85010183 -4.1875 8.4375 C-5.1671875 9.21867188 -6.146875 9.99984375 -7.15625 10.8046875 C-10.38247464 13.29526202 -13.64392909 15.68804004 -17 18 C-17 17.01 -17 16.02 -17 15 C-12.65714286 11 -12.65714286 11 -10 11 C-10 10.34 -10 9.68 -10 9 C-8.3203125 7.34375 -8.3203125 7.34375 -6.125 5.5 C-4.00964496 3.71066742 -1.95980876 1.95980876 0 0 Z " fill="#153159" transform="translate(795,846)"/>
<path d="M0 0 C2.46042585 3.69063877 2.02689844 4.69080515 1.25 8.9375 C1.06953125 9.97777344 0.8890625 11.01804687 0.703125 12.08984375 C-0.35566543 16.47205969 -2.23349327 19.47899144 -5 23 C-4.354523 15.09290669 -2.13002861 7.60866033 0 0 Z " fill="#284266" transform="translate(87,391)"/>
<path d="M0 0 C1.36330719 4.08992156 0.10320091 5.48696384 -1.75 9.3125 C-2.28109375 10.42238281 -2.8121875 11.53226563 -3.359375 12.67578125 C-3.90078125 13.77277344 -4.4421875 14.86976563 -5 16 C-5.50015625 17.10730469 -6.0003125 18.21460938 -6.515625 19.35546875 C-8 22 -8 22 -11 23 C-9.44347945 17.6462535 -7.0182491 12.99849053 -4.375 8.125 C-3.95476562 7.34125 -3.53453125 6.5575 -3.1015625 5.75 C-2.0718978 3.83107943 -1.03652433 1.91522397 0 0 Z " fill="#6299D6" transform="translate(326,673)"/>
<path d="M0 0 C0.66 0.33 1.32 0.66 2 1 C0.58972554 2.46451579 -0.82848796 3.9213893 -2.25 5.375 C-3.03890625 6.18710937 -3.8278125 6.99921875 -4.640625 7.8359375 C-6.75347714 9.77388467 -8.42826231 10.83153657 -11 12 C-11.7425 12.8353125 -11.7425 12.8353125 -12.5 13.6875 C-12.995 14.120625 -13.49 14.55375 -14 15 C-16.09375 14.58203125 -16.09375 14.58203125 -18 14 C-17.49025635 13.61142822 -16.9805127 13.22285645 -16.45532227 12.82250977 C-14.15712702 11.06994243 -11.8598031 9.31623658 -9.5625 7.5625 C-8.35883789 6.64500977 -8.35883789 6.64500977 -7.13085938 5.70898438 C-5.98520508 4.8340332 -5.98520508 4.8340332 -4.81640625 3.94140625 C-4.10943604 3.40201416 -3.40246582 2.86262207 -2.67407227 2.30688477 C-1.06449844 1.10524969 -1.06449844 1.10524969 0 0 Z " fill="#C2D6ED" transform="translate(641,346)"/>
<path d="M0 0 C0.33 0.99 0.66 1.98 1 3 C-0.30324219 3.48919922 -0.30324219 3.48919922 -1.6328125 3.98828125 C-2.78523438 4.42527344 -3.93765625 4.86226563 -5.125 5.3125 C-6.26195312 5.74175781 -7.39890625 6.17101562 -8.5703125 6.61328125 C-12.03017654 7.94703077 -12.03017654 7.94703077 -15.3046875 9.73046875 C-16.19414062 10.14941406 -17.08359375 10.56835938 -18 11 C-18.66 10.67 -19.32 10.34 -20 10 C-17.75076296 8.7069894 -15.50064815 7.41555023 -13.25 6.125 C-12.61578125 5.76019531 -11.9815625 5.39539063 -11.328125 5.01953125 C-2.56676136 0 -2.56676136 0 0 0 Z " fill="#96B1CE" transform="translate(451,380)"/>
<path d="M0 0 C0.66 0.66 1.32 1.32 2 2 C0.30390025 3.80474671 -1.40532173 5.59294998 -3.125 7.375 C-3.8365625 8.13683594 -3.8365625 8.13683594 -4.5625 8.9140625 C-7.80459208 12.24377869 -10.49245785 13.88983383 -15 15 C-10 10 -5 5 0 0 Z " fill="#4A8CD4" transform="translate(590,616)"/>
<path d="M0 0 C11.55 0 23.1 0 35 0 C34.34 1.32 33.68 2.64 33 4 C32.34 3.34 31.68 2.68 31 2 C27.79461597 1.62653332 27.79461597 1.62653332 24.0234375 1.5859375 C23.33819 1.56657135 22.6529425 1.5472052 21.94692993 1.5272522 C19.75641356 1.46743169 17.5658447 1.42106244 15.375 1.375 C13.89060198 1.33682237 12.40622616 1.29777076 10.921875 1.2578125 C7.28145315 1.16172916 3.64086564 1.07770718 0 1 C0 0.67 0 0.34 0 0 Z " fill="#A5BFDD" transform="translate(708,415)"/>
<path d="M0 0 C1.74965358 -0.05429959 3.49979787 -0.09292823 5.25 -0.125 C6.22453125 -0.14820312 7.1990625 -0.17140625 8.203125 -0.1953125 C11.0196498 0.00137219 12.60949036 0.55431084 15 2 C11.68929162 3.00109515 8.69915231 3.10356134 5.25 3.0625 C4.26515625 3.05347656 3.2803125 3.04445313 2.265625 3.03515625 C1.51796875 3.02355469 0.7703125 3.01195313 0 3 C0 2.01 0 1.02 0 0 Z " fill="#142F56" transform="translate(565,75)"/>
<path d="M0 0 C5.06998019 0.65419099 9.41990777 2.8546409 14 5 C13.67 5.66 13.34 6.32 13 7 C9.88452559 6.32116957 7.14862279 5.25893098 4.25 3.9375 C3.45078125 3.57527344 2.6515625 3.21304688 1.828125 2.83984375 C1.22484375 2.56269531 0.6215625 2.28554687 0 2 C0 1.34 0 0.68 0 0 Z " fill="#0D2B55" transform="translate(684,107)"/>
<path d="M0 0 C0.99 0.33 1.98 0.66 3 1 C-0.00592181 4.35275894 -2.9401094 6.09962567 -7 8 C-7.99 8.66 -8.98 9.32 -10 10 C-10 9.01 -10 8.02 -10 7 C-7.91796875 5.140625 -7.91796875 5.140625 -5.1875 3.25 C-3.84751953 2.29867187 -3.84751953 2.29867187 -2.48046875 1.328125 C-1.25263672 0.67070312 -1.25263672 0.67070312 0 0 Z " fill="#12315A" transform="translate(266,145)"/>
<path d="M0 0 C0.99 0 1.98 0 3 0 C2.54775239 5.91492272 1.8417395 11.35199888 0 17 C-0.33 17 -0.66 17 -1 17 C-1.12036664 11.22240116 -0.8320582 5.72040011 0 0 Z " fill="#528CCB" transform="translate(415,699)"/>
<path d="M0 0 C-0.66 3.63 -1.32 7.26 -2 11 C-2.33 11 -2.66 11 -3 11 C-3.125 4.25 -3.125 4.25 -2 2 C-5.63 2 -9.26 2 -13 2 C-13 1.67 -13 1.34 -13 1 C-8.61414671 0.29826347 -4.44209357 -0.10834375 0 0 Z " fill="#AAC8EB" transform="translate(330,482)"/>
<path d="M0 0 C2 2 2 2 2.08203125 4.27734375 C1.99308594 5.15519531 1.90414062 6.03304688 1.8125 6.9375 C1.73644531 7.81277344 1.66039063 8.68804687 1.58203125 9.58984375 C0.93104272 12.28554791 0.11762004 13.27051517 -2 15 C-1.03644647 4.44191344 -1.03644647 4.44191344 0 0 Z " fill="#112E56" transform="translate(80,420)"/>
<path d="M0 0 C0.33 0 0.66 0 1 0 C2.125 5.625 2.125 5.625 1 9 C7.93 9.495 7.93 9.495 15 10 C15 10.33 15 10.66 15 11 C9.72 11 4.44 11 -1 11 C-0.67 7.37 -0.34 3.74 0 0 Z " fill="#80A5D4" transform="translate(695,531)"/>
<path d="M0 0 C0.33 0.66 0.66 1.32 1 2 C0.34 2 -0.32 2 -1 2 C-1 2.66 -1 3.32 -1 4 C-2.4096347 4.70180531 -3.82807641 5.38593958 -5.25 6.0625 C-6.03890625 6.44535156 -6.8278125 6.82820313 -7.640625 7.22265625 C-10 8 -10 8 -14 7 C-9.38 4.69 -4.76 2.38 0 0 Z " fill="#16325B" transform="translate(313,118)"/>
<path d="M0 0 C0.33 0 0.66 0 1 0 C1.19390729 2.31197155 1.37996367 4.6246029 1.5625 6.9375 C1.66691406 8.22527344 1.77132812 9.51304687 1.87890625 10.83984375 C1.91886719 11.88269531 1.95882812 12.92554688 2 14 C1.67 14.33 1.34 14.66 1 15 C0.76807135 16.51469448 0.58784762 18.03754562 0.4375 19.5625 C0.35371094 20.38878906 0.26992187 21.21507812 0.18359375 22.06640625 C0.12300781 22.70449219 0.06242187 23.34257812 0 24 C-0.33 24 -0.66 24 -1 24 C-1.14525497 15.94641862 -0.71413279 8.02124152 0 0 Z " fill="#637993" transform="translate(72,470)"/>
<path d="M0 0 C0.66 0 1.32 0 2 0 C4.27678571 8.03571429 4.27678571 8.03571429 3 12 C0.01485372 7.89542386 -0.2954439 5.02254631 0 0 Z " fill="#203A5B" transform="translate(937,399)"/>
<path d="M0 0 C0.33 0.66 0.66 1.32 1 2 C-0.47169811 5.73584906 -0.47169811 5.73584906 -3 7 C-3.72159424 8.64363134 -4.39351421 10.31050386 -5 12 C-5.66 12 -6.32 12 -7 12 C-5.77759242 7.95665186 -4.39561694 4.49360803 -2 1 C-1.34 0.67 -0.68 0.34 0 0 Z " fill="#1B365E" transform="translate(124,304)"/>
<path d="M0 0 C0.33 0 0.66 0 1 0 C0.85831863 1.43791516 0.71148957 2.8753237 0.5625 4.3125 C0.48128906 5.11300781 0.40007813 5.91351562 0.31640625 6.73828125 C0 9 0 9 -1 12 C-1.66 12 -2.32 12 -3 12 C-2.49202991 7.6822542 -1.80317221 3.96697886 0 0 Z " fill="#05234C" transform="translate(940,610)"/>
<path d="M0 0 C0.33 0 0.66 0 1 0 C1.17942163 3.94727588 1.09350689 6.5980513 -1 10 C-1.66 10 -2.32 10 -3 10 C-3.3648363 5.74357648 -2.47460354 3.46444495 0 0 Z " fill="#0D2B52" transform="translate(936,626)"/>
<path d="M0 0 C0.66 1.32 1.32 2.64 2 4 C3.98 3.67 5.96 3.34 8 3 C5.84832931 5.47442129 4.28212246 6.56238367 1 7 C0 6 0 6 -0.0625 2.9375 C-0.041875 1.968125 -0.02125 0.99875 0 0 Z " fill="#A3C0E6" transform="translate(687,450)"/>
<path d="M0 0 C1.55136786 2.46393719 2.03039129 3.68089146 1.75 6.625 C1 9 1 9 -1 11 C-1.02688151 9.35425434 -1.04634123 7.70838587 -1.0625 6.0625 C-1.07410156 5.14597656 -1.08570312 4.22945313 -1.09765625 3.28515625 C-1 1 -1 1 0 0 Z " fill="#0B2A52" transform="translate(77,440)"/>
<path d="M0 0 C-0.75 4.75 -0.75 4.75 -3 7 C-3.103125 6.360625 -3.20625 5.72125 -3.3125 5.0625 C-3.539375 4.381875 -3.76625 3.70125 -4 3 C-4.99 2.67 -5.98 2.34 -7 2 C-2.25 0 -2.25 0 0 0 Z " fill="#B9CDE4" transform="translate(719,305)"/>
<path d="M0 0 C0.66 0 1.32 0 2 0 C1.35455571 3.48539917 -0.10134397 6.02819057 -2 9 C-2.99 8.67 -3.98 8.34 -5 8 C-4.21718695 6.66144944 -3.42348123 5.32926356 -2.625 4 C-2.18414062 3.2575 -1.74328125 2.515 -1.2890625 1.75 C-0.86367187 1.1725 -0.43828125 0.595 0 0 Z " fill="#102E57" transform="translate(149,260)"/>
<path d="M0 0 C0.66 0 1.32 0 2 0 C0.8141763 3.37503669 -0.27573689 5.64722731 -3 8 C-3.99 7.67 -4.98 7.34 -6 7 C-5.04882866 5.8274869 -4.08882991 4.66212985 -3.125 3.5 C-2.59132812 2.8503125 -2.05765625 2.200625 -1.5078125 1.53125 C-0.76144531 0.77328125 -0.76144531 0.77328125 0 0 Z " fill="#16345D" transform="translate(169,234)"/>
<path d="M0 0 C-1.49097658 3.7952131 -3.75700849 5.61042731 -7 8 C-7 5 -7 5 -4.625 2.3125 C-2 0 -2 0 0 0 Z " fill="#1E395E" transform="translate(817,829)"/>
<path d="M0 0 C2.83022097 3.99560608 1.76210446 7.42737323 1 12 C0.67 12 0.34 12 0 12 C-0.19477739 10.37585622 -0.38059458 8.75063577 -0.5625 7.125 C-0.66691406 6.22007812 -0.77132812 5.31515625 -0.87890625 4.3828125 C-1 2 -1 2 0 0 Z " fill="#122F54" transform="translate(79,588)"/>
<path d="M0 0 C-1.36983503 3.16115776 -1.9890638 3.9927092 -5 6 C-5.33 4.35 -5.66 2.7 -6 1 C-3 0 -3 0 0 0 Z " fill="#A1BEE0" transform="translate(680,421)"/>
<path d="M0 0 C-7.28571429 3.42857143 -7.28571429 3.42857143 -12 3 C-4.82142857 -1.78571429 -4.82142857 -1.78571429 0 0 Z " fill="#1A3663" transform="translate(456,339)"/>
<path d="M0 0 C0.33 0.99 0.66 1.98 1 3 C-1.97 4.32 -4.94 5.64 -8 7 C-8 6.01 -8 5.02 -8 4 C-5.36 2.68 -2.72 1.36 0 0 Z " fill="#11305C" transform="translate(686,317)"/>
<path d="M0 0 C0.66 0.99 1.32 1.98 2 3 C0.68 5.31 -0.64 7.62 -2 10 C-2.66 10 -3.32 10 -4 10 C-2.8905928 6.51329166 -1.73662334 3.22515763 0 0 Z " fill="#243F65" transform="translate(116,316)"/>
<path d="M0 0 C0.66 0 1.32 0 2 0 C0.44499019 3.81684226 -2.03595495 6.19195732 -5 9 C-5 5.47967572 -4.29648649 4.5614657 -2 2 C-1.34 2 -0.68 2 0 2 C0 1.34 0 0.68 0 0 Z " fill="#07244F" transform="translate(587,297)"/>
<path d="M0 0 C1.0326802 2.78823655 1.04509293 3.8677274 0.0625 6.75 C-0.288125 7.4925 -0.63875 8.235 -1 9 C-1.66 8.34 -2.32 7.68 -3 7 C-2.67028521 3.70285207 -2.3773161 2.3773161 0 0 Z " fill="#0C2B53" transform="translate(920,674)"/>
<path d="M0 0 C0.99 0.33 1.98 0.66 3 1 C1.625 3 1.625 3 0 5 C-0.66 5 -1.32 5 -2 5 C-2.66 6.32 -3.32 7.64 -4 9 C-4 5.00095031 -2.27413033 3.19799578 0 0 Z " fill="#14315A" transform="translate(157,249)"/>
<path d="M0 0 C0.66 0.33 1.32 0.66 2 1 C0.35 2.65 -1.3 4.3 -3 6 C-4.32 5.34 -5.64 4.68 -7 4 C-1.7265625 0.77734375 -1.7265625 0.77734375 0 0 Z " fill="#14325C" transform="translate(292,129)"/>
<path d="M0 0 C1.65 0 3.3 0 5 0 C5.33 0.99 5.66 1.98 6 3 C6.99 3.66 7.98 4.32 9 5 C6.03 4.505 6.03 4.505 3 4 C2.67 3.01 2.34 2.02 2 1 C1.34 0.67 0.68 0.34 0 0 Z " fill="#B7D0F0" transform="translate(469,373)"/>
<path d="M0 0 C0.66 0.33 1.32 0.66 2 1 C-0.475 5.455 -0.475 5.455 -3 10 C-4 6 -4 6 -2.0625 2.75 C-1.381875 1.8425 -0.70125 0.935 0 0 Z " fill="#BDD0EB" transform="translate(693,355)"/>
<path d="M0 0 C0.93423645 3.01031744 1.04449911 3.86650268 0 7 C-2.0625 8.1875 -2.0625 8.1875 -4 9 C-2.94124926 5.59687262 -1.99097846 2.98646769 0 0 Z " fill="#122F59" transform="translate(112,326)"/>
<path d="M0 0 C0.66 0 1.32 0 2 0 C0.6302836 3.99500618 -1.25722422 6.80009492 -4 10 C-3.43697042 6.05879291 -2.3208055 3.2491277 0 0 Z " fill="#0D2A56" transform="translate(576,311)"/>
<path d="M0 0 C-0.33 0.66 -0.66 1.32 -1 2 C-3.3140622 2.73075648 -5.64828869 3.40138258 -8 4 C-8.66 3.34 -9.32 2.68 -10 2 C-8.71211992 1.46987262 -7.41953322 0.9511671 -6.125 0.4375 C-5.40570313 0.14746094 -4.68640625 -0.14257812 -3.9453125 -0.44140625 C-2 -1 -2 -1 0 0 Z " fill="#213D63" transform="translate(363,98)"/>
<path d="M0 0 C0.66 0.33 1.32 0.66 2 1 C-1.96 4.465 -1.96 4.465 -6 8 C-6 5 -6 5 -4.6875 3.61328125 C-3.125 2.40885417 -1.5625 1.20442708 0 0 Z " fill="#4686CE" transform="translate(619,621)"/>
<path d="M0 0 C4.05606165 0.46800711 7.46588679 0.87953208 11 3 C9 4 9 4 6.8359375 3.44140625 C6.02382813 3.15136719 5.21171875 2.86132812 4.375 2.5625 C3.55773437 2.27503906 2.74046875 1.98757813 1.8984375 1.69140625 C1.27195312 1.46324219 0.64546875 1.23507812 0 1 C0 0.67 0 0.34 0 0 Z " fill="#BED5EF" transform="translate(567,378)"/>
<path d="M0 0 C0.66 0.33 1.32 0.66 2 1 C2 4.3 2 7.6 2 11 C1.67 11 1.34 11 1 11 C0.67 9.35 0.34 7.7 0 6 C-0.33 6 -0.66 6 -1 6 C-1.042721 4.33388095 -1.04063832 2.66617115 -1 1 C-0.67 0.67 -0.34 0.34 0 0 Z " fill="#16345E" transform="translate(480,310)"/>
<path d="M0 0 C2.26609984 4.53219967 1.92735976 6.17772925 1 11 C0.34 10.67 -0.32 10.34 -1 10 C-0.67 6.7 -0.34 3.4 0 0 Z " fill="#BDCBDF" transform="translate(485,288)"/>
<path d="M0 0 C0.99 0.495 0.99 0.495 2 1 C2.40729228 3.32156597 2.74438677 5.6568787 3 8 C2.01 8.495 2.01 8.495 1 9 C0.67 6.03 0.34 3.06 0 0 Z " fill="#0A274D" transform="translate(86,623)"/>
<path d="M0 0 C0.99 0.33 1.98 0.66 3 1 C1.35 2.98 -0.3 4.96 -2 7 C-2.33 6.01 -2.66 5.02 -3 4 C-1.5625 1.8125 -1.5625 1.8125 0 0 Z " fill="#508FD6" transform="translate(633,605)"/>
<path d="M0 0 C0.33 0 0.66 0 1 0 C1.125 2.375 1.125 2.375 1 5 C0.34 5.66 -0.32 6.32 -1 7 C-1.99 6.67 -2.98 6.34 -4 6 C-2.69593116 3.98079663 -1.36176581 1.98075027 0 0 Z " fill="#12305C" transform="translate(678,381)"/>
<path d="M0 0 C-0.66 1.32 -1.32 2.64 -2 4 C-2.99 4 -3.98 4 -5 4 C-5 3.01 -5 2.02 -5 1 C-3 0 -3 0 0 0 Z M-7 4 C-5 5 -5 5 -5 5 Z " fill="#D2E1F6" transform="translate(658,337)"/>
<path d="M0 0 C0.99 0.33 1.98 0.66 3 1 C1.02 3.97 1.02 3.97 -1 7 C-1.66 6.67 -2.32 6.34 -3 6 C-2.01 4.02 -1.02 2.04 0 0 Z " fill="#0F2C56" transform="translate(130,290)"/>
</svg>
