<?xml version="1.0" encoding="UTF-8"?>
<svg version="1.1" xmlns="http://www.w3.org/2000/svg" width="128" height="128">
<path d="M0 0 C4.27684957 3.76770081 6.44364166 7.45923282 8 12.875 C9.46591306 17.70198443 11.63609007 19.34203516 15.625 22.3125 C18.17176486 25.78536118 17.9878022 29.10399443 17.625 33.3125 C16.07272512 37.96932464 14.08751711 40.14383102 9.77734375 42.48535156 C5.60457218 44.08895298 1.32355583 43.88062356 -3.09375 43.84375 C-4.11045776 43.8475769 -5.12716553 43.85140381 -6.17468262 43.85534668 C-8.31617223 43.85805878 -10.45769537 43.850747 -12.59912109 43.83398438 C-15.86501369 43.81256549 -19.12870655 43.83381081 -22.39453125 43.859375 C-24.48177566 43.8567316 -26.5690187 43.85160637 -28.65625 43.84375 C-29.62622925 43.85184692 -30.5962085 43.85994385 -31.59558105 43.86828613 C-37.70948429 43.78429879 -41.38738022 42.92035468 -46.375 39.3125 C-49.33831892 35.20208988 -49.90517524 31.43829855 -49.73046875 26.48828125 C-49.01414948 22.10377757 -46.40602154 19.31227846 -43.3125 16.3125 C-40.96938202 13.89379756 -39.84866934 11.32391126 -38.375 8.3125 C-36.63881406 6.07104633 -35.72101498 5.39073906 -32.921875 4.7578125 C-31.99890625 4.65210937 -31.0759375 4.54640625 -30.125 4.4375 C-24.54271968 3.57471691 -21.74807075 1.79310733 -17.375 -1.6875 C-11.63354274 -3.70830276 -5.31935686 -2.65967843 0 0 Z M-19.375 8.3125 C-20.365 9.7975 -20.365 9.7975 -21.375 11.3125 C-23.9516503 11.52464273 -26.3882295 11.30714652 -28.96484375 11.125 C-31.41112142 11.1036813 -31.41112142 11.1036813 -33.13671875 12.59375 C-34.64085086 14.45784102 -34.64085086 14.45784102 -35.25 17.8125 C-36.375 21.3125 -36.375 21.3125 -38.875 23.0625 C-39.7 23.475 -40.525 23.8875 -41.375 24.3125 C-43.69037595 27.12958195 -43.69037595 27.12958195 -43.1875 30.3125 C-42.33533652 33.45894977 -41.89256689 34.37523307 -39.375 36.3125 C-37.20264758 36.76541785 -37.20264758 36.76541785 -34.76757812 36.70068359 C-33.83651245 36.71014008 -32.90544678 36.71959656 -31.94616699 36.7293396 C-30.44140808 36.72023056 -30.44140808 36.72023056 -28.90625 36.7109375 C-27.87439575 36.71380768 -26.8425415 36.71667786 -25.77941895 36.71963501 C-23.59724377 36.72167701 -21.41505035 36.71613771 -19.23291016 36.70361328 C-15.887931 36.68756205 -12.54416021 36.70345791 -9.19921875 36.72265625 C-7.08072649 36.72067384 -4.96223499 36.71683022 -2.84375 36.7109375 C-1.84057739 36.71701019 -0.83740479 36.72308289 0.19616699 36.7293396 C1.12723267 36.71988312 2.05829834 36.71042664 3.01757812 36.70068359 C3.83681763 36.69829681 4.65605713 36.69591003 5.50012207 36.69345093 C8.1464084 36.21902121 9.03028469 35.44756983 10.625 33.3125 C11.16020313 29.71899325 11.07314771 27.99368452 9.0625 24.9375 C5.80817497 22.76794998 3.45369586 23.01798493 -0.375 23.3125 C0.12 21.8275 0.12 21.8275 0.625 20.3125 C1.1324473 16.50664525 1.48596143 12.86415811 -0.421875 9.42578125 C-2.1945649 7.2724844 -3.86630789 5.56684606 -6.375 4.3125 C-12.2510539 3.83085624 -15.07834562 3.88947343 -19.375 8.3125 Z " fill="#FFFFFF" transform="translate(62.375,73.6875)"/>
<path d="M0 0 C5.03990767 3.73060781 8.25087725 8.70410708 10.1953125 14.625 C11.0737926 22.51089115 10.8107864 29.9507287 6.1953125 36.625 C2.21718103 40.90772158 -2.05416649 44.51921073 -8.0546875 44.75 C-8.9621875 44.70875 -9.8696875 44.6675 -10.8046875 44.625 C-11.2996875 42.15 -11.2996875 42.15 -11.8046875 39.625 C-11.12921875 39.26148438 -10.45375 38.89796875 -9.7578125 38.5234375 C-3.09871427 34.77047751 0.72419448 32.03835407 3.1953125 24.625 C3.78396829 18.62071091 2.48809045 14.54807843 -0.8046875 9.625 C-4.50079333 5.92889417 -8.41944019 3.68605656 -13.75390625 3.58984375 C-19.96696135 4.07505377 -23.9280443 6.54547645 -28.1171875 11.1875 C-30.64571457 14.83981688 -31.00999629 17.97517816 -31.3671875 22.3125 C-31.45097656 23.30636719 -31.53476562 24.30023438 -31.62109375 25.32421875 C-31.68167969 26.08347656 -31.74226563 26.84273437 -31.8046875 27.625 C-33.7846875 27.625 -35.7646875 27.625 -37.8046875 27.625 C-39.68182193 20.67960262 -38.32085109 13.54902978 -35.0546875 7.25 C-25.66360502 -3.7062629 -12.984845 -7.34833672 0 0 Z " fill="#F5AA24" transform="translate(84.8046875,39.375)"/>
<path d="M0 0 C3.81630901 2.0816231 6.50603828 4.76540656 8.75 8.5 C8.625 11.4375 8.625 11.4375 7.75 13.5 C2.83498978 13.3510603 0.35351469 10.73650892 -2.8671875 7.35546875 C-4.25 5.5 -4.25 5.5 -4.6875 2.5625 C-4.543125 1.881875 -4.39875 1.20125 -4.25 0.5 C-2.25 -0.5 -2.25 -0.5 0 0 Z " fill="#F6AB29" transform="translate(42.25,27.5)"/>
<path d="M0 0 C2.73695358 -0.49762792 4.46497369 -0.3243949 6.85546875 1.125 C10.15351177 3.73623406 11.78778151 5.23601344 12.9375 9.375 C12.958125 10.24125 12.97875 11.1075 13 12 C10.765625 12.734375 10.765625 12.734375 8 13 C5.796875 11.453125 5.796875 11.453125 3.75 9.25 C2.72132812 8.17492187 2.72132812 8.17492187 1.671875 7.078125 C0 5 0 5 -1 2 C-0.67 1.34 -0.34 0.68 0 0 Z " fill="#F6AC2A" transform="translate(92,81)"/>
<path d="M0 0 C1.66611905 -0.042721 3.33382885 -0.04063832 5 0 C6 1 6 1 6.09765625 4.16015625 C6.08605469 5.44792969 6.07445313 6.73570313 6.0625 8.0625 C6.05347656 9.35285156 6.04445313 10.64320312 6.03515625 11.97265625 C6.02355469 12.97167969 6.01195313 13.97070312 6 15 C3.625 15.625 3.625 15.625 1 16 C-1 14 -1 14 -1.23046875 11.25 C-1.21628906 10.1775 -1.20210938 9.105 -1.1875 8 C-1.18105469 6.9275 -1.17460938 5.855 -1.16796875 4.75 C-1 2 -1 2 0 0 Z " fill="#F6AE2F" transform="translate(68,15)"/>
<path d="M0 0 C1.60488281 -0.02126953 1.60488281 -0.02126953 3.2421875 -0.04296875 C6.125 0.1875 6.125 0.1875 9.125 2.1875 C8.75 4.125 8.75 4.125 8.125 6.1875 C5.37994537 7.56002731 3.12172588 7.31979255 0.0625 7.3125 C-1.56365234 7.31636719 -1.56365234 7.31636719 -3.22265625 7.3203125 C-5.875 7.1875 -5.875 7.1875 -6.875 6.1875 C-7 3.6875 -7 3.6875 -6.875 1.1875 C-5.07595222 -0.61154778 -2.42436549 0.01453457 0 0 Z " fill="#F5A71E" transform="translate(107.875,56.8125)"/>
<path d="M0 0 C2.14576637 -0.02685938 4.29162645 -0.04633088 6.4375 -0.0625 C7.63246094 -0.07410156 8.82742187 -0.08570313 10.05859375 -0.09765625 C13 0 13 0 14 1 C14.125 3.5 14.125 3.5 14 6 C12.19728218 7.80271782 9.55591251 7.21502284 7.125 7.25 C5.52011719 7.28867188 5.52011719 7.28867188 3.8828125 7.328125 C1 7 1 7 -0.8828125 5.484375 C-1.25148438 4.99453125 -1.62015625 4.5046875 -2 4 C-1.34 2.68 -0.68 1.36 0 0 Z " fill="#F5A61C" transform="translate(27,57)"/>
<path d="M0 0 C-0.50482258 4.29475923 -1.76917204 6.33731829 -4.8125 9.375 C-5.84310547 10.43847656 -5.84310547 10.43847656 -6.89453125 11.5234375 C-9 13 -9 13 -11.26171875 12.7265625 C-12.12216797 12.36691406 -12.12216797 12.36691406 -13 12 C-13.4375 9.9375 -13.4375 9.9375 -13 7 C-5.95282539 -1.78584762 -5.95282539 -1.78584762 0 0 Z " fill="#F5A922" transform="translate(105,28)"/>
</svg>
